<?xml version="1.0" encoding="UTF-8"?>
<svg xmlns="http://www.w3.org/2000/svg" xmlns:xlink="http://www.w3.org/1999/xlink" viewBox="0 0 2500 2500">
  <defs>
    <style>
      .cls-1, .cls-2, .cls-3, .cls-4, .cls-5, .cls-6, .cls-7, .cls-8, .cls-9 {
        stroke: #fff;
        stroke-miterlimit: 10;
      }

      .cls-1, .cls-2, .cls-5, .cls-7, .cls-8, .cls-9 {
        stroke-width: 4px;
      }

      .cls-10 {
        opacity: .9;
      }

      .cls-2 {
        fill: url(#linear-gradient-2);
      }

      .cls-11, .cls-12, .cls-13 {
        stroke-width: 0px;
      }

      .cls-12 {
        fill: url(#linear-gradient);
        opacity: .7;
      }

      .cls-3, .cls-4 {
        stroke-width: 2px;
      }

      .cls-3, .cls-7 {
        fill: none;
      }

      .cls-13, .cls-6 {
        fill: #fff;
      }

      .cls-5 {
        fill: url(#linear-gradient-3);
      }

      .cls-8 {
        fill: url(#linear-gradient-5);
      }

      .cls-9 {
        fill: url(#linear-gradient-4);
      }
    </style>
    <linearGradient id="linear-gradient" x1="2048.75" y1="148.16" x2="202.33" y2="2250.71" gradientTransform="translate(189.88 45.52) rotate(-.16) scale(.96 .99) skewX(-4.23)" gradientUnits="userSpaceOnUse">
      <stop offset=".07" stop-color="#39b54a"/>
      <stop offset=".08" stop-color="#38b349"/>
      <stop offset=".34" stop-color="#356e3d"/>
      <stop offset=".54" stop-color="#334335"/>
      <stop offset=".64" stop-color="#333"/>
      <stop offset=".71" stop-color="#222"/>
      <stop offset=".88" stop-color="#000"/>
    </linearGradient>
    <linearGradient id="linear-gradient-2" x1="910.44" y1="1097.82" x2="956.19" y2="1023.07" gradientUnits="userSpaceOnUse">
      <stop offset="0" stop-color="#39b54a"/>
      <stop offset="0" stop-color="#38b349"/>
      <stop offset=".28" stop-color="#356e3d"/>
      <stop offset=".47" stop-color="#334335"/>
      <stop offset=".57" stop-color="#333"/>
      <stop offset=".67" stop-color="#222"/>
      <stop offset=".93" stop-color="#000"/>
    </linearGradient>
    <linearGradient id="linear-gradient-3" x1="878.93" y1="1078.31" x2="972.2" y2="1078.31" gradientUnits="userSpaceOnUse">
      <stop offset=".2" stop-color="#39b54a"/>
      <stop offset=".2" stop-color="#38b349"/>
      <stop offset=".38" stop-color="#356e3d"/>
      <stop offset=".5" stop-color="#334335"/>
      <stop offset=".57" stop-color="#333"/>
      <stop offset=".7" stop-color="#222"/>
      <stop offset="1" stop-color="#000"/>
    </linearGradient>
    <linearGradient id="linear-gradient-4" x1="951.93" y1="964.33" x2="977.1" y2="964.33" gradientUnits="userSpaceOnUse">
      <stop offset=".04" stop-color="#39b54a"/>
      <stop offset=".05" stop-color="#38b349"/>
      <stop offset=".3" stop-color="#356e3d"/>
      <stop offset=".48" stop-color="#334335"/>
      <stop offset=".57" stop-color="#333"/>
      <stop offset=".7" stop-color="#222"/>
      <stop offset="1" stop-color="#000"/>
    </linearGradient>
    <linearGradient id="linear-gradient-5" x1="927.08" y1="1002.81" x2="957.59" y2="1002.81" xlink:href="#linear-gradient-4"/>
  </defs>
  <g id="Background">
    <rect class="cls-11" width="2500" height="2500"/>
  </g>
  <g id="Illustration">
    <path class="cls-12" d="M407.41,1264.3c-220.26,293.76-136.35,875.94,377.62,983.94,370.09,77.77,697.58-274.03,697.23-535.82-.35-261.79,245.62-356.66,349.55-694.34,235.12-763.89-769.3-976.06-974.89-347.53-112.4,343.63-289.31,380.09-449.51,593.75Z"/>
    <g class="cls-10">
      <rect class="cls-13" x="545.18" y="1904.56" width="599.29" height="102.37" rx="41.02" ry="41.02" transform="translate(1689.64 3911.49) rotate(180)"/>
      <rect class="cls-13" x="429.37" y="1737.5" width="836.02" height="102.37" rx="41.02" ry="41.02" transform="translate(1694.76 3577.38) rotate(180)"/>
      <rect class="cls-13" x="666.11" y="2031.51" width="555.23" height="102.37" rx="41.02" ry="41.02" transform="translate(1887.45 4165.4) rotate(180)"/>
      <rect class="cls-13" x="545.18" y="2158.47" width="599.29" height="102.37" rx="41.02" ry="41.02" transform="translate(1689.64 4419.31) rotate(180)"/>
      <rect class="cls-11" x="648.77" y="2060.6" width="397.23" height="65.18" transform="translate(2940.58 1245.81) rotate(90)"/>
    </g>
    <path class="cls-1" d="M510.34,1102.34c-8.35-3.2-15.68-8.81-20.27-16.55-6.79-11.45-10.34-29.82,5.27-56.21,35.25-59.58,93.28-31.88,115.6-38.9,50.01-15.72,38.38-40.95,58.81-65.67,15.29-18.49,67.9-53.53,147.04,10.63,0,0,35.43,45.51,76.04,27.85,49.89-21.69,149.54,26.05,117.47,98.16-9.25,20.8-25.76,36.84-45.81,45.62-3.63,1.59-7.61,3.13-11.93,4.55-12.5,4.11-22.2,14.59-25.41,28.06-10.47,43.86-49.53,128.65-191.87,44.47-10.73-6.35-23.52-7.08-34.7-2.16-13.73,6.05-28.75,29.27-94.74,19.92-42.39-6-55.56-52.24-66.62-73.24-8.81-16.73-21.58-23.76-28.87-26.55Z"/>
    <g>
      <g>
        <path class="cls-4" d="M1223.87,1417.88c-49.74,23.92-146.2-24.97-163.41-101.63-13.65-60.78-34.97-91.63-43.22-101.8-3.94-6.74-9.13-13.05-15.99-19.08-49.06-43.12-134.04-29.16-170.81-23.12-41.71,6.85-76.27,12.53-99.77,39-6.24,7.03-10.67,14.39-13.71,22.22v-.03c-44.9,84.54-8.51,171.83,13.93,212.15,3.7,161.68-49.76,136.27-35.29,208.06,20.38,101.13,183.25,63.33,242.49,50.41,20.79-4.53,129.62,27.78,156.22-56.18,15.52-49-13.98-71.62-40.03-154.99,133.45,82.95,216.94-72.65,216.94-72.65l3.94-38.6s-1.56,12.31-51.29,36.23Z"/>
        <path class="cls-3" d="M811.1,1724.67c-31.56,0-62.02-4.97-84.54-19.67-17.96-11.72-29.31-28.81-33.74-50.79-6.49-32.19.28-45.43,9.64-63.75,11.65-22.8,27.59-54,25.62-144.11-24.45-44.16-58.27-130.12-13.64-214.2,3.27-8.32,7.89-15.77,14.12-22.78,24.17-27.21,59.97-33.1,101.43-39.91,36.83-6.05,123.07-20.22,173.14,23.79,6.85,6.02,12.24,12.43,16.45,19.59,8.68,10.76,30,42,43.65,102.79,8.42,37.5,38.51,72.83,78.53,92.2,30.11,14.58,60.35,17.38,80.9,7.5,46.25-22.24,49.72-34.1,49.75-34.22.19-1.54,1.56-2.55,3.11-2.37,1.54.18,2.63,1.64,2.48,3.18l-3.94,38.6c-.04.37-.15.72-.32,1.05-.41.76-41.37,75.82-110.62,94.32-33.74,9.01-68.64,3.38-103.84-16.75,8.3,25.29,16.91,44.97,23.94,61.05,14.62,33.43,24.28,55.51,13.81,88.54-21.63,68.29-95.78,62.1-135.63,58.78-10.03-.84-18.68-1.56-22.69-.69l-3.71.81c-29.47,6.45-77.85,17.03-123.88,17.03Z"/>
      </g>
      <path class="cls-4" d="M998.4,1408.93s96.09-35.03,126.09-99.07l61.85-57.64s-.87,27.86-19.24,39.49c0,0,15.77,31.75-7.5,53.66,0,0-17.45,13.87-27.85,14.12,0,0-30.46,100.06-112.7,129.85,0,0-23.1-35.11-20.66-80.42Z"/>
      <path class="cls-3" d="M1019.06,1492.17c-.93,0-1.83-.46-2.36-1.27-.96-1.47-23.58-36.41-21.12-82.12.06-1.13.79-2.12,1.85-2.5.95-.35,95.35-35.39,124.5-97.61.15-.33.37-.62.63-.87l61.85-57.64c.83-.78,2.06-.98,3.09-.51,1.04.47,1.69,1.52,1.66,2.66-.04,1.16-1.07,27.52-18.55,40.42,3.16,7.96,11.73,35.1-9.07,54.7-.87.7-16.49,13.03-27.68,14.71-4.7,13.83-37.39,102.17-113.84,129.86-.32.11-.64.17-.96.17Z"/>
      <path class="cls-13" d="M911.78,1521.12c-80.06,0-126.01-39.66-126.63-40.21-1.17-1.04-1.27-2.82-.24-3.99,1.04-1.17,2.82-1.28,3.99-.24.81.72,82.59,71.06,218.73,20.55,1.45-.54,3.09.2,3.63,1.67s-.2,3.09-1.67,3.63c-36.57,13.57-69.36,18.59-97.82,18.59Z"/>
      <path class="cls-6" d="M960.93,1412.77c-69.75,0-110.36-39.71-132.6-74.74-26.16-41.18-33.12-84.95-33.19-85.39-.24-1.54.82-2.99,2.36-3.22,1.57-.23,2.99.82,3.22,2.36.07.43,6.89,43.17,32.47,83.36,34.07,53.54,83.54,77.41,147.05,70.96,1.52-.15,2.94.97,3.1,2.53.16,1.55-.97,2.94-2.53,3.1-6.87.7-13.5,1.03-19.88,1.03Z"/>
      <path class="cls-13" d="M1015.02,1362.33c-.14,0-.27-.01-.41-.03-1.54-.23-2.61-1.66-2.39-3.21,12.55-85.78-26.71-134.33-27.1-134.81-1-1.2-.83-2.98.37-3.98,1.2-1,2.98-.83,3.98.37,1.69,2.03,41.29,50.81,28.35,139.24-.21,1.41-1.41,2.42-2.79,2.42Z"/>
      <path class="cls-1" d="M1284.64,1458.45s-51.45,5.96-67.4-7.65c-11.81-10.08,10.23-40.25,11.89-42.61,13.97-19.91,46.56-66.29,51.42-72.88,4.4-5.95,12.78-20.13,23.74-19.09,10.96,1.05,71.63,11.84,76.05,13.95,9.24,4.41,5.34,18.31-1.42,25.98-6.77,7.67-94.28,102.31-94.28,102.31Z"/>
      <path class="cls-1" d="M1310.55,1436.47c-1.32,0-2.63-.34-3.81-1.02-1.99-1.15-3.36-3.1-3.74-5.37-3.63-21.3-.97-36,8.11-44.92,9.32-9.16,24.81-11.56,47.36-7.31,2.57.48,4.68,2.23,5.64,4.68.98,2.47.63,5.22-.93,7.35-18.56,25.39-34.9,40.48-49.96,46.11-.87.33-1.77.49-2.67.49Z"/>
    </g>
    <g>
      <g>
        <path class="cls-1" d="M997.29,1121.29c-2.67-17.87,1.61-65.28.83-64.13-7.65,11.22-32.84-2.06-55.53-2.95-22.69-.89-15.05,33.18-15.05,33.18,0,0-6.64-23.12-20.8-8.65-8.22,8.4.84,19.24,9.28,26.33-2.32,2.64-43.19,46.68-68.21,72.87l55.52,42.13,27.79-25.96-5.66-9.03c-4.04-6.44-4.4-14.52-.95-21.3l13.59-23.03c3.12,3.77,7.06,8.09,10.7,10.63,7.24,5.05,16.24,4.27,22.63-1.83,8.76-8.36,14.88-17.75,17.66-26.87l8.22-1.4Z"/>
        <path class="cls-7" d="M903.32,1222.91c-.6,0-1.2-.19-1.71-.57l-55.52-42.13c-.64-.49-1.04-1.22-1.11-2.03-.06-.8.22-1.59.77-2.18,22.88-23.94,57.59-61.29,66.23-70.69-5.38-4.92-10.96-11.62-11.29-18.47-.18-3.76,1.17-7.15,4.02-10.07,4.52-4.62,9-6.4,13.34-5.31,2.11.53,3.91,1.7,5.43,3.16.09-6.06,1.24-12.89,5.15-17.58,3.32-3.99,8.07-5.89,14.06-5.65,8.57.34,17.53,2.4,25.45,4.22,12.81,2.94,23.87,5.49,27.64-.04.71-1.05,2.07-1.51,3.27-1.1q2.22.75,1.52,13.24c-.8,14.35-2.3,41.07-.49,53.17.23,1.52-.8,2.95-2.32,3.2l-6.54,1.12c-3.15,9.14-9.3,18.24-17.87,26.41-7.38,7.04-17.91,7.89-26.2,2.1-2.53-1.77-5.44-4.49-8.65-8.1l-11.58,19.63c-2.9,5.7-2.58,12.8.91,18.36l5.66,9.03c.72,1.15.52,2.64-.47,3.57l-27.79,25.96c-.54.51-1.23.76-1.93.76Z"/>
      </g>
      <g>
        <path class="cls-1" d="M933.75,1134.71l4.34,6.06-4.34-6.06Z"/>
        <path class="cls-1" d="M938.09,1143.59c-.88,0-1.75-.41-2.3-1.18l-4.34-6.06c-.91-1.27-.62-3.03.65-3.94,1.27-.91,3.03-.62,3.94.65l4.34,6.06c.91,1.27.62,3.04-.65,3.94-.5.36-1.07.53-1.64.53Z"/>
      </g>
    </g>
    <g>
      <path class="cls-1" d="M1416.44,2034.8c-.55,2.26,26.05,123.96,26.05,123.96l-61.13-10.23-18.41-102.89,53.49-10.84Z"/>
      <path class="cls-1" d="M1442.48,2161.58c-.15,0-.31-.01-.47-.04l-61.13-10.23c-1.18-.2-2.1-1.11-2.32-2.29l-18.41-102.89c-.27-1.51.72-2.96,2.22-3.27l53.49-10.84c.96-.19,1.93.11,2.6.81.55.57.83,1.33.79,2.1.41,5.04,15.73,76.27,25.99,123.22.2.92-.07,1.87-.71,2.55-.54.57-1.28.88-2.05.88Z"/>
    </g>
    <path class="cls-1" d="M1410.03,2118.84c3.74-3.14,9.08-6.21,15.89-6.5,10.24-.44,19.59,5.98,23.83,15.4,10.6,23.56,38.55,89.19,46.45,142.83,2.79,18.96-11.51,34.38-33.8,21.95-36.53-20.36-87.2-67.09-113.73-136.11-3.04-7.92-1.96-16.88,3.04-23.72,4.08-5.58,9.62-12.35,16.06-18.11,6.15-5.51,15.4-5.59,21.77-.35l5.74,4.72c4.31,3.54,10.48,3.49,14.75-.1Z"/>
    <path class="cls-13" d="M1482.28,2278.46c-4.81,0-56.34-3.01-118.84-126.53-.71-1.39-.15-3.09,1.24-3.8,1.39-.7,3.1-.15,3.8,1.25,62.26,123.05,113.37,123.38,113.91,123.43,1.48-.03,2.85,1.19,2.9,2.74.04,1.55-1.16,2.85-2.71,2.91-.06,0-.16,0-.3,0Z"/>
    <path class="cls-13" d="M1443.16,2210.46c-1.13,0-2.19-.68-2.63-1.79-.57-1.45.14-3.09,1.59-3.67l28.98-11.43c1.46-.57,3.09.14,3.67,1.59.57,1.45-.14,3.09-1.59,3.67l-28.98,11.43c-.34.13-.69.2-1.04.2Z"/>
    <path class="cls-13" d="M1433.01,2188.26c-1.13,0-2.2-.68-2.64-1.8-.57-1.45.15-3.09,1.61-3.66l33.99-13.23c1.45-.56,3.09.15,3.66,1.61.57,1.45-.15,3.09-1.61,3.66l-33.99,13.23c-.34.13-.68.19-1.02.19Z"/>
    <path class="cls-4" d="M1153.4,2045.85c-1.45,1.83-28.47,123.43-28.47,123.43l-51.16-34.98,26.54-101.1,53.09,12.65Z"/>
    <path class="cls-1" d="M1124.93,2172.1c-.56,0-1.12-.17-1.6-.49l-51.16-34.98c-.99-.67-1.44-1.9-1.14-3.05l26.54-101.1c.39-1.49,1.89-2.39,3.39-2.03l53.09,12.65c.94.22,1.7.91,2.02,1.83.26.74.19,1.55-.17,2.24-1.75,4.75-17.79,75.82-28.21,122.73-.2.92-.85,1.67-1.72,2.02-.34.13-.69.2-1.04.2Z"/>
    <path class="cls-1" d="M1112.26,2119.41c4.71-1.28,10.85-1.82,17.15.78,9.48,3.91,15.26,13.66,15.15,23.99-.28,25.83-2.51,97.13-17.89,149.12-5.44,18.38-24.89,26.35-39.9,5.71-24.59-33.83-50.93-97.53-45.99-171.31.57-8.47,5.32-16.14,12.73-20.24,6.05-3.35,13.92-7.16,22.18-9.68,7.9-2.41,16.32,1.4,19.9,8.84l3.23,6.7c2.42,5.03,8.05,7.57,13.43,6.11Z"/>
    <path class="cls-13" d="M1112.09,2294.96c-.37,0-.74-.07-1.09-.22-2.04-.86-49.99-22.64-54.92-164.88-.05-1.56,1.17-2.87,2.73-2.92,1.54-.03,2.87,1.17,2.92,2.73,4.8,138.66,50.99,159.67,51.46,159.86,1.44.61,2.11,2.26,1.51,3.7-.46,1.08-1.5,1.73-2.61,1.73Z"/>
    <path class="cls-13" d="M1136.1,2218.55c-.06,0-.11,0-.17,0l-31.1-1.81c-1.56-.09-2.75-1.43-2.66-2.99.09-1.56,1.41-2.76,2.99-2.66l31.1,1.81c1.56.09,2.75,1.43,2.66,2.99-.09,1.5-1.33,2.66-2.82,2.66Z"/>
    <path class="cls-13" d="M1141.52,2194.61c-.06,0-.12,0-.18,0l-36.4-2.28c-1.56-.1-2.74-1.44-2.64-3,.1-1.56,1.48-2.73,3-2.64l36.4,2.28c1.56.1,2.74,1.44,2.64,3-.09,1.5-1.34,2.65-2.82,2.65Z"/>
    <path class="cls-1" d="M867.49,1566.55s372.23-16.16,412.92,21.63c55.2,51.26,150.02,477.97,150.02,477.97l-91.56,25.67s-137.95-350.2-172.13-350.2-356.46-11.5-356.46-11.5l57.21-163.58Z"/>
    <path class="cls-1" d="M842.88,1557.24c-29.42-1.51-55.71,18.15-62.64,46.78-10.73,44.36-20.01,105.02,3.99,121.18,39.06,26.29,320.66,24.05,310.89,20.77-9.77-3.29-25.18,235.98-25.18,327.98l88.66,3.42s141.29-370.02,126.06-411.34c-27.25-73.92-236.99-90.85-304.1-100.73-9.02-1.33-85.56-5.39-137.69-8.06Z"/>
    <g>
      <g>
        <circle class="cls-2" cx="922.38" cy="1078.31" r="43.81"/>
        <path class="cls-5" d="M922.38,1124.95c-25.72,0-46.64-20.92-46.64-46.64s20.92-46.64,46.64-46.64,46.64,20.92,46.64,46.64-20.92,46.64-46.64,46.64ZM922.38,1037.32c-22.6,0-40.99,18.39-40.99,40.99s18.39,40.98,40.99,40.98,40.98-18.39,40.98-40.98-18.39-40.99-40.98-40.99Z"/>
      </g>
      <path class="cls-9" d="M974.19,974.67c-.05,0-.11,0-.16,0-1.56-.09-2.75-1.42-2.67-2.98.48-8.66-1.38-11.62-2.43-11.97-1.55-.52-5.98,1.88-11.83,10.62-.87,1.3-2.62,1.65-3.92.78-1.3-.87-1.65-2.62-.78-3.92,6.78-10.14,13.11-14.58,18.32-12.84,3.25,1.09,6.99,5.03,6.29,17.64-.08,1.51-1.33,2.67-2.82,2.67Z"/>
      <path class="cls-8" d="M929.91,1039.68c-.19,0-.38-.02-.58-.06-1.53-.32-2.51-1.81-2.19-3.34,5.98-28.82,15.19-54.01,25.27-69.08.87-1.3,2.62-1.65,3.92-.78,1.3.87,1.65,2.62.78,3.92-9.69,14.5-18.6,38.95-24.44,67.09-.28,1.34-1.45,2.25-2.76,2.25Z"/>
    </g>
    <g>
      <path class="cls-6" d="M998.42,889.46c-.29,0-.58-.07-.86-.21-1.04-.54-1.49-1.91-1.01-3.07,1.74-4.22,3.57-8.44,5.44-12.56.52-1.14,1.76-1.59,2.78-1.01,1.02.58,1.42,1.97.9,3.11-1.85,4.06-3.66,8.23-5.37,12.4-.35.85-1.1,1.34-1.88,1.34Z"/>
      <path class="cls-6" d="M1905.22,1247.28c-1.14,0-2.06-1.03-2.06-2.3,0-1.28.92-2.32,2.06-2.32,8.23-.04,16.6-.34,24.88-.91,1.16-.09,2.12.89,2.19,2.17.07,1.27-.8,2.37-1.93,2.45-8.36.58-16.81.88-25.12.92h0ZM1880.22,1246.57s-.08,0-.11,0c-8.37-.51-16.8-1.32-25.05-2.39-1.13-.15-1.94-1.29-1.81-2.56.13-1.27,1.16-2.17,2.29-2.03,8.17,1.06,16.51,1.85,24.8,2.36,1.14.07,2.01,1.16,1.95,2.44-.06,1.23-.97,2.18-2.06,2.18ZM1955.14,1243.86c-1.03,0-1.92-.87-2.05-2.04-.13-1.27.68-2.42,1.81-2.57,8.18-1.08,16.47-2.44,24.64-4.03,1.12-.22,2.19.62,2.39,1.88.2,1.26-.56,2.46-1.68,2.67-8.24,1.61-16.61,2.98-24.87,4.07-.08.01-.16.02-.25.02ZM1830.55,1240.11c-.12,0-.24-.01-.37-.04-8.27-1.66-16.54-3.64-24.6-5.87-1.11-.31-1.78-1.56-1.51-2.8.27-1.24,1.39-2,2.5-1.69,7.97,2.21,16.15,4.16,24.33,5.81,1.12.23,1.87,1.43,1.67,2.68-.18,1.12-1.05,1.9-2.03,1.9ZM2004.41,1234.25c-.94,0-1.79-.72-2.01-1.79-.26-1.24.43-2.49,1.55-2.77,8.06-2.09,16.16-4.48,24.06-7.12,1.09-.36,2.24.33,2.57,1.56.33,1.22-.3,2.51-1.39,2.88-7.98,2.66-16.16,5.08-24.3,7.19-.16.04-.31.06-.47.06ZM1782.02,1226.63c-.21,0-.42-.04-.63-.11-8.02-2.88-15.98-6.09-23.67-9.55-1.06-.48-1.57-1.82-1.15-3.01.42-1.19,1.63-1.76,2.69-1.29,7.6,3.42,15.47,6.59,23.4,9.43,1.09.39,1.68,1.69,1.33,2.91-.28.98-1.09,1.61-1.97,1.61ZM2052.33,1218.28c-.84,0-1.63-.58-1.94-1.52-.39-1.2.16-2.53,1.23-2.97,7.74-3.18,15.51-6.68,23.08-10.41,1.04-.51,2.26.02,2.72,1.19.46,1.17-.02,2.53-1.06,3.05-7.65,3.76-15.5,7.3-23.32,10.52-.23.1-.48.14-.71.14ZM1735.63,1205.75c-.31,0-.61-.08-.91-.24-7.57-4.16-15.02-8.67-22.15-13.41-.98-.65-1.3-2.07-.72-3.17.58-1.1,1.85-1.46,2.83-.81,7.03,4.67,14.38,9.12,21.86,13.23,1.02.56,1.45,1.95.94,3.09-.36.82-1.09,1.29-1.86,1.29ZM2098.11,1195.76c-.75,0-1.47-.46-1.84-1.25-.52-1.13-.12-2.53.89-3.11,7.33-4.23,14.65-8.77,21.77-13.51.98-.65,2.25-.29,2.83.8.58,1.1.26,2.52-.72,3.17-7.19,4.79-14.59,9.38-21.99,13.65-.3.17-.63.26-.94.26ZM1692.67,1177.15c-.41,0-.83-.14-1.2-.43-6.88-5.5-13.55-11.35-19.84-17.39-.87-.83-.96-2.29-.22-3.26.74-.97,2.05-1.08,2.91-.25,6.19,5.95,12.77,11.72,19.55,17.13.93.74,1.14,2.19.48,3.22-.4.63-1.04.97-1.68.97ZM2141.1,1167.15c-.66,0-1.31-.36-1.71-1.01-.64-1.06-.39-2.49.55-3.21,6.82-5.18,13.61-10.67,20.19-16.32.9-.78,2.2-.59,2.9.43.69,1.01.52,2.46-.38,3.24-6.64,5.71-13.5,11.25-20.38,16.48-.35.27-.76.4-1.16.4ZM1654.8,1140.67c-.54,0-1.08-.24-1.49-.71-5.85-6.81-11.42-13.97-16.54-21.27-.7-1-.55-2.46.35-3.25.9-.79,2.19-.62,2.9.39,5.04,7.18,10.52,14.22,16.27,20.92.79.92.77,2.38-.06,3.27-.4.43-.92.65-1.43.65ZM2180.79,1133.06c-.58,0-1.16-.27-1.56-.8-.75-.97-.65-2.43.22-3.26,6.25-6.04,12.44-12.36,18.4-18.8.82-.89,2.13-.86,2.92.06.79.92.77,2.38-.05,3.27-6.01,6.49-12.26,12.88-18.57,18.97-.39.38-.87.56-1.35.56ZM1624,1096.7c-.69,0-1.36-.38-1.75-1.08-4.47-7.98-8.59-16.28-12.24-24.69-.5-1.15-.07-2.53.95-3.09,1.02-.56,2.26-.08,2.76,1.07,3.58,8.26,7.63,16.42,12.02,24.25.61,1.08.32,2.51-.65,3.19-.34.24-.72.35-1.1.35ZM2216.79,1094.16c-.5,0-1.01-.2-1.4-.62-.84-.87-.89-2.33-.11-3.27,5.65-6.82,11.17-13.88,16.42-20.98.73-.98,2.03-1.12,2.91-.31.88.81,1,2.27.27,3.25-5.3,7.17-10.87,14.29-16.57,21.18-.41.49-.96.74-1.51.74ZM1601.52,1046.74c-.8,0-1.57-.53-1.9-1.41-3.35-8.86-6.41-17.69-9.11-26.23-.38-1.2.18-2.52,1.26-2.95,1.07-.42,2.26.21,2.63,1.41,2.67,8.45,5.7,17.19,9.02,25.97.44,1.18-.05,2.53-1.1,3.03-.26.12-.54.18-.8.18ZM1584.95,993.93c-.91,0-1.74-.67-1.99-1.7-2.25-9.2-4.17-18.44-5.68-27.46-.21-1.26.53-2.46,1.65-2.7,1.12-.24,2.2.59,2.41,1.85,1.49,8.9,3.38,18.01,5.6,27.09.3,1.23-.34,2.5-1.44,2.84-.18.06-.37.08-.55.08ZM1575.77,938.94c-1.05,0-1.95-.89-2.05-2.09-.81-9.28-1.25-18.49-1.35-28.15-.01-1.28.9-2.32,2.04-2.34,1.12.02,2.07,1.01,2.09,2.28.1,9.53.54,18.61,1.33,27.76.11,1.27-.72,2.4-1.85,2.53-.07,0-.14.01-.2.01ZM1575.04,882.99s-.08,0-.12,0c-1.14-.07-2.01-1.16-1.94-2.44.52-10.21,1.28-19.89,1.95-28.01.11-1.27,1.09-2.21,2.25-2.09,1.14.12,1.97,1.25,1.86,2.52-.67,8.08-1.43,17.7-1.94,27.84-.06,1.23-.97,2.18-2.06,2.18ZM1297.2,875.93s-.07,0-.1,0c-8.27-.46-15.31-2.59-20.94-6.34-1.22-.81-2.43-1.72-3.6-2.71-.91-.77-1.09-2.22-.41-3.24.68-1.02,1.98-1.23,2.89-.46,1.04.88,2.13,1.7,3.22,2.42,5.05,3.36,11.45,5.28,19.04,5.7,1.14.06,2.02,1.15,1.96,2.42-.05,1.24-.97,2.2-2.06,2.2ZM1321.97,872.75c-.92,0-1.76-.69-2-1.73-.29-1.24.38-2.5,1.48-2.82,7.85-2.28,15.73-5.73,22.79-10,1-.61,2.26-.19,2.8.94.54,1.12.17,2.53-.84,3.13-7.35,4.44-15.55,8.04-23.71,10.41-.17.05-.35.07-.52.07ZM1016.08,852.56c-.37,0-.74-.11-1.08-.34-.97-.67-1.27-2.09-.67-3.18,4.42-8.03,9.16-15.89,14.1-23.36.68-1.03,1.97-1.24,2.89-.48.92.76,1.11,2.21.43,3.23-4.87,7.37-9.55,15.12-13.91,23.04-.39.71-1.07,1.1-1.76,1.1ZM1365.21,845.87c-.51,0-1.02-.21-1.42-.63-.83-.88-.86-2.34-.08-3.27,5.57-6.57,9.14-13.47,10.61-20.52.18-.85.32-1.7.44-2.56.17-1.26,1.24-2.12,2.35-1.94,1.13.19,1.9,1.37,1.73,2.63-.13.98-.3,1.95-.5,2.92-1.64,7.85-5.55,15.47-11.63,22.65-.41.48-.95.72-1.5.72ZM1258.51,845.5c-.76,0-1.5-.48-1.86-1.29-3.44-7.84-6.13-16.95-8.01-27.07-.23-1.25.48-2.47,1.6-2.73,1.11-.26,2.21.54,2.44,1.79,1.81,9.74,4.39,18.48,7.67,25.98.5,1.15.08,2.53-.94,3.09-.29.16-.6.24-.91.24ZM1579.34,827.18c-.06,0-.12,0-.18,0-1.14-.11-1.98-1.23-1.87-2.51.85-10.8,1.4-19.64,1.71-27.84.05-1.28,1.03-2.27,2.15-2.21,1.14.05,2.02,1.13,1.97,2.41-.32,8.26-.87,17.18-1.73,28.05-.09,1.2-1,2.11-2.05,2.11ZM1045.82,807.6c-.49,0-.98-.19-1.37-.58-.85-.85-.93-2.31-.18-3.26,5.59-7.06,11.5-13.87,17.56-20.24.83-.87,2.14-.83,2.92.1.78.93.74,2.39-.09,3.27-5.97,6.27-11.79,12.98-17.29,19.93-.41.52-.98.78-1.55.78ZM1372.23,794.47c-.76,0-1.5-.47-1.85-1.29-3.2-7.28-7.96-14.74-14.15-22.17-.78-.93-.73-2.4.1-3.27.83-.87,2.14-.82,2.92.11,6.47,7.76,11.46,15.59,14.84,23.28.5,1.15.08,2.53-.94,3.09-.29.16-.6.24-.91.24ZM1247.75,791.18c-1.1,0-2.02-.98-2.06-2.22-.08-2.5-.13-5.04-.13-7.59,0-6.77.3-13.74.9-20.7.11-1.27,1.13-2.2,2.25-2.08,1.14.12,1.97,1.25,1.86,2.52-.58,6.82-.88,13.63-.88,20.26,0,2.5.04,4.97.12,7.42.04,1.28-.84,2.35-1.99,2.4-.03,0-.05,0-.08,0ZM1581.23,771.24c-1.11,0-2.03-.99-2.06-2.24-.28-9.48-.92-18.55-1.94-27.71-.14-1.27.66-2.42,1.79-2.58,1.13-.16,2.16.74,2.31,2.01,1.04,9.3,1.69,18.5,1.97,28.13.04,1.28-.86,2.35-2,2.39-.02,0-.05,0-.07,0ZM1082.28,769.35c-.62,0-1.23-.31-1.63-.9-.7-1.01-.53-2.46.37-3.24,6.67-5.78,13.64-11.21,20.7-16.15.97-.68,2.24-.35,2.85.73.6,1.08.31,2.51-.66,3.19-6.94,4.86-13.8,10.21-20.36,15.89-.38.33-.82.48-1.26.48ZM1339.04,753.16c-.43,0-.86-.15-1.23-.46-6.62-5.54-13.83-10.65-20.86-14.77-1.01-.59-1.4-1.99-.87-3.12.53-1.13,1.78-1.57,2.79-.98,7.21,4.23,14.62,9.47,21.41,15.16.91.76,1.1,2.21.42,3.24-.41.61-1.03.93-1.66.93ZM1124.68,739.72c-.76,0-1.5-.48-1.86-1.3-.5-1.15-.08-2.53.95-3.09,7.57-4.15,15.39-7.87,23.22-11.06,1.07-.44,2.26.18,2.65,1.38.39,1.2-.16,2.53-1.24,2.96-7.7,3.13-15.37,6.78-22.82,10.86-.29.16-.6.24-.91.24ZM1252.43,735.54c-.15,0-.3-.02-.45-.06-1.11-.28-1.82-1.51-1.57-2.76,1.83-9.25,4.17-18.39,6.96-27.19.38-1.2,1.56-1.83,2.64-1.41,1.07.43,1.64,1.75,1.26,2.95-2.73,8.62-5.02,17.58-6.82,26.64-.21,1.08-1.07,1.81-2.01,1.81ZM1294.85,727.35c-.22,0-.45-.04-.68-.13-7.82-3.03-15.83-5.59-23.82-7.61-1.11-.28-1.81-1.52-1.56-2.76.25-1.25,1.35-2.03,2.47-1.75,8.14,2.05,16.3,4.66,24.27,7.75,1.08.42,1.65,1.73,1.27,2.94-.3.96-1.1,1.55-1.95,1.55ZM1171.63,720.66c-.93,0-1.78-.71-2-1.77-.27-1.24.41-2.49,1.52-2.79,8.18-2.22,16.53-3.93,24.82-5.09,1.14-.16,2.16.74,2.3,2.01.14,1.27-.66,2.42-1.79,2.58-8.14,1.14-16.33,2.82-24.36,5-.16.04-.33.07-.49.07ZM1575.01,715.73c-.95,0-1.8-.74-2.01-1.82l-.44-2.21c-1.56-7.63-4.42-15.36-8.5-22.97-.59-1.09-.27-2.51.71-3.17.98-.66,2.25-.3,2.83.79,4.31,8.03,7.34,16.21,8.99,24.33l.45,2.25c.25,1.25-.46,2.48-1.57,2.75-.15.04-.3.05-.44.05ZM1246.15,715.1c-.07,0-.15,0-.22-.01-7.53-.9-15.18-1.36-22.74-1.36h-1.99s-.01.01-.02.01c-1.13,0-2.05-1.02-2.06-2.29-.01-1.28.91-2.32,2.05-2.33h2.03c7.71-.01,15.51.46,23.18,1.37,1.13.14,1.95,1.28,1.83,2.54-.11,1.19-1.01,2.07-2.05,2.07ZM1269.19,682.91c-.32,0-.64-.08-.94-.25-1.01-.58-1.42-1.98-.9-3.11,3.92-8.57,8.34-16.71,13.14-24.21.66-1.04,1.95-1.28,2.88-.53.93.74,1.14,2.19.47,3.23-4.68,7.31-9,15.26-12.82,23.62-.37.8-1.09,1.26-1.84,1.26ZM1550.41,667.87c-.54,0-1.07-.23-1.48-.7-5.44-6.23-11.73-12.3-18.68-18.03-.92-.76-1.12-2.2-.44-3.23.68-1.03,1.97-1.25,2.89-.49,7.13,5.88,13.59,12.11,19.19,18.52.8.91.78,2.38-.03,3.27-.4.44-.92.66-1.44.66ZM1298.51,637.84c-.55,0-1.1-.25-1.51-.73-.78-.93-.73-2.4.1-3.27,6.13-6.4,13-12.1,20.43-16.94.99-.64,2.25-.27,2.82.84.57,1.1.24,2.52-.75,3.16-7.16,4.66-13.79,10.16-19.69,16.32-.4.42-.9.62-1.41.62ZM1510.41,634.49c-.34,0-.68-.09-1-.29-7.06-4.41-14.56-8.5-22.29-12.17-1.05-.5-1.54-1.86-1.1-3.03.44-1.17,1.65-1.73,2.71-1.23,7.87,3.73,15.5,7.9,22.69,12.39,1,.62,1.35,2.03.8,3.14-.38.76-1.08,1.19-1.81,1.19ZM1464.42,612.6c-.2,0-.41-.03-.61-.1-7.92-2.75-16.01-5.08-24.05-6.91-1.12-.26-1.84-1.48-1.61-2.73.23-1.25,1.32-2.06,2.44-1.8,8.17,1.87,16.4,4.23,24.45,7.03,1.09.38,1.7,1.67,1.36,2.89-.28.99-1.09,1.63-1.97,1.63ZM1341.32,609.68c-.86,0-1.66-.61-1.95-1.57-.37-1.21.21-2.52,1.29-2.93,7.74-2.95,16.01-5.25,24.58-6.82,1.14-.21,2.19.65,2.37,1.91.18,1.26-.58,2.45-1.7,2.66-8.35,1.53-16.4,3.76-23.92,6.63-.22.08-.45.12-.67.12ZM1415.44,601.46c-.07,0-.13,0-.2-.01-6.78-.73-13.56-1.09-20.13-1.09-1.63,0-3.08.02-4.61.06-1.19.04-2.09-.98-2.11-2.26-.03-1.28.88-2.34,2.02-2.37,1.56-.04,3.14-.04,4.71-.06,6.7,0,13.61.37,20.52,1.11,1.14.12,1.97,1.25,1.86,2.52-.1,1.2-1,2.09-2.05,2.09Z"/>
      <path class="cls-6" d="M2248.88,1050.67c-.42,0-.85-.14-1.22-.45-.92-.75-1.12-2.2-.45-3.23,2.41-3.7,4.74-7.38,7.11-11.26.65-1.05,1.93-1.32,2.87-.6.94.72,1.18,2.16.54,3.21-2.4,3.92-4.75,7.64-7.19,11.37-.4.62-1.03.95-1.67.95Z"/>
    </g>
    <path class="cls-13" d="M943.77,871.13c.96,2.39,2.56,4.32,4.53,5.49-1.97,1.16-3.57,3.1-4.53,5.49-.96-2.39-2.56-4.32-4.53-5.49,1.97-1.16,3.57-3.1,4.53-5.49M943.77,853c-.54,0-.98.53-.98,1.18v11.81c0,5.22-3.49,9.45-7.81,9.45h-9.76c-.54,0-.98.53-.98,1.18s.44,1.18.98,1.18h9.76c4.31,0,7.81,4.23,7.81,9.45v11.81c0,.65.44,1.18.98,1.18s.98-.53.98-1.18v-11.81c0-5.22,3.49-9.45,7.81-9.45h9.76c.54,0,.98-.53.98-1.18s-.44-1.18-.98-1.18h-9.76c-4.31,0-7.81-4.23-7.81-9.45v-11.81c0-.65-.44-1.18-.98-1.18h0Z"/>
    <path class="cls-13" d="M1799.68,1174.41c2.44.61,4.89.46,6.94-.43-.22,2.22.4,4.6,1.73,6.74-2.44-.61-4.89-.46-6.94.43.22-2.22-.4-4.6-1.73-6.74M1785.34,1163.99c-.31.42-.14,1.08.37,1.45l9.34,6.78c4.13,3,5.46,8.19,2.98,11.6l-5.61,7.72c-.31.42-.14,1.08.37,1.45s1.19.33,1.49-.09l5.61-7.72c2.48-3.41,7.83-3.75,11.95-.75l9.34,6.78c.51.37,1.19.33,1.49-.09s.14-1.08-.37-1.45l-9.34-6.78c-4.13-3-5.46-8.19-2.98-11.6l5.61-7.72c.31-.42.14-1.08-.37-1.45s-1.19-.33-1.49.09l-5.61,7.72c-2.48,3.41-7.83,3.75-11.95.75l-9.34-6.78c-.51-.37-1.19-.33-1.49.09h0Z"/>
    <path class="cls-13" d="M995.68,825.83h0c-6.05,0-10.96-4.86-10.96-10.86h0c0-.75-.61-1.36-1.37-1.36h0c-.76,0-1.37.61-1.37,1.36h0c0,5.99-4.91,10.86-10.96,10.86h0c-.76,0-1.37.61-1.37,1.36h0c0,.75.61,1.36,1.37,1.36h0c6.05,0,10.96,4.86,10.96,10.86h0c0,.75.61,1.36,1.37,1.36h0c.76,0,1.37-.61,1.37-1.36h0c0-5.99,4.91-10.86,10.96-10.86h0c.76,0,1.37-.61,1.37-1.36h0c0-.75-.61-1.36-1.37-1.36Z"/>
    <path class="cls-13" d="M1606.23,647.44h0c-6.05,0-10.96-4.86-10.96-10.86h0c0-.75-.61-1.36-1.37-1.36h0c-.76,0-1.37.61-1.37,1.36h0c0,5.99-4.91,10.86-10.96,10.86h0c-.76,0-1.37.61-1.37,1.36h0c0,.75.61,1.36,1.37,1.36h0c6.05,0,10.96,4.86,10.96,10.86h0c0,.75.61,1.36,1.37,1.36h0c.76,0,1.37-.61,1.37-1.36h0c0-5.99,4.91-10.86,10.96-10.86h0c.76,0,1.37-.61,1.37-1.36h0c0-.75-.61-1.36-1.37-1.36Z"/>
    <path class="cls-13" d="M2306.58,1010.41h0c-7.77,0-14.08-6.24-14.08-13.94h0c0-.96-.79-1.74-1.76-1.74h0c-.97,0-1.76.78-1.76,1.74h0c0,7.7-6.3,13.94-14.08,13.94h0c-.97,0-1.76.78-1.76,1.74h0c0,.96.79,1.74,1.76,1.74h0c7.77,0,14.08,6.24,14.08,13.94h0c0,.96.79,1.74,1.76,1.74h0c.97,0,1.76-.78,1.76-1.74h0c0-7.7,6.3-13.94,14.08-13.94h0c.97,0,1.76-.78,1.76-1.74h0c0-.96-.79-1.74-1.76-1.74Z"/>
  </g>
</svg>